<svg xmlns="http://www.w3.org/2000/svg" version="1.1" xmlns:xlink="http://www.w3.org/1999/xlink" xmlns:svgjs="http://svgjs.dev/svgjs" width="128" height="128" viewBox="0 0 128 128" fill="none"><g transform="matrix(0.8046875,0,0,0.8046875,12.67068639604448,1.9524738898026257)"><svg viewBox="0 0 78 95" data-background-color="#ffffff" preserveAspectRatio="xMidYMid meet" height="155" width="128" xmlns="http://www.w3.org/2000/svg" xmlns:xlink="http://www.w3.org/1999/xlink"><g id="tight-bounds" transform="matrix(1,0,0,1,-0.12925765914047815,-0.24049999999999727)"><svg viewBox="0 0 78.25851531828094 95.481" height="95.481" width="78.25851531828094"><g><svg viewBox="0 0 78.25851531828094 95.481" height="95.481" width="78.25851531828094"><g><svg viewBox="0 0 78.25851531828094 95.481" height="95.481" width="78.25851531828094"><g><svg viewBox="0 0 78.25851531828094 95.481" height="95.481" width="78.25851531828094"><g><svg viewBox="0 0 78.25851531828094 95.481" height="95.481" width="78.25851531828094"><g><svg viewBox="0 0 78.25851531828094 95.481" height="95.481" width="78.25851531828094"><g><svg xmlns="http://www.w3.org/2000/svg" xmlns:xlink="http://www.w3.org/1999/xlink" version="1.1" x="0" y="0" viewBox="7.187 0.4849999999999999 81.169 99.03200000000001" enable-background="new 0 0 100 100" xml:space="preserve" height="95.481" width="78.25851531828094" class="icon-icon-0" data-fill-palette-color="accent" id="icon-0"><g fill="#ffffff" data-fill-palette-color="accent"><path d="M49.877 92.378c12.023 0 21.769-9.748 21.769-21.771 0-3.732-0.938-7.246-2.594-10.314 2.576-1.014 4.4-3.525 4.4-6.461 0-3.074-2.009-5.688-4.778-6.598-1.8-0.565-3.007-3.102-2.419-6.652 0.205-1.007 0.289-2.046 0.289-3.106 0-5.175-2.288-10.017-6.007-13.074l-5.349-4.843h-5.312-5.314L39.215 24.4c-3.718 3.058-6.006 7.899-6.006 13.074 0 1.061 0.083 2.1 0.289 3.106 0.589 3.551-0.618 6.087-2.419 6.652-2.77 0.91-4.779 3.523-4.779 6.598 0 2.936 1.825 5.447 4.402 6.461-1.655 3.068-2.594 6.582-2.594 10.314C28.107 82.63 37.854 92.378 49.877 92.378L49.877 92.378zM41.344 20.697l1.101-0.997-0.618 0.062c-6.685 0.698-12.285 2.133-15.35 3.378-1.158 0.439-1.982 1.56-1.982 2.873l-0.003 65.015c0 1.309 0.819 2.426 1.973 2.869 4.228 1.719 13.359 3.811 23.409 3.811 10.041 0 19.169-2.088 23.399-3.807 1.159-0.439 1.982-1.559 1.982-2.873l0.004-65.015c0-1.311-0.819-2.428-1.973-2.869-3.152-1.282-9.027-2.77-15.979-3.444l1.102 0.998c6.354 0.714 11.665 2.087 14.551 3.262 0.828 0.314 1.421 1.117 1.421 2.054l-0.003 65.015c0 0.936-0.593 1.74-1.422 2.055-4.108 1.67-13.129 3.746-23.083 3.746-9.954 0-18.975-2.076-23.083-3.746-0.829-0.314-1.421-1.119-1.421-2.055l0.003-65.015c0-0.937 0.593-1.739 1.421-2.054C29.673 22.787 34.966 21.412 41.344 20.697L41.344 20.697zM32.049 4.233c-1.696 0-3.072 1.376-3.072 3.072v7.119c0 1.695 1.375 3.071 3.072 3.071h35.607c1.696 0 3.072-1.376 3.072-3.071V7.306c0-1.696-1.376-3.072-3.072-3.072H32.049L32.049 4.233zM83.297 38.223c0.086-0.89 0.836-1.584 1.747-1.584h1.557c0.969 0 1.755 0.785 1.755 1.755v24.188c0 0.969-0.786 1.754-1.755 1.754h-1.557c-0.911 0-1.661-0.695-1.747-1.584l-3.604 1.258h-2.779v18.26h2.078c0.112-0.357 0.445-0.615 0.839-0.615h1.131c0.484 0 0.879 0.393 0.879 0.877v8.281c0 0.486-0.395 0.879-0.879 0.879h-1.131c-0.394 0-0.727-0.26-0.839-0.615h-2.078v5.809c0 1.453-1.179 2.631-2.632 2.631H25.688c-1.454 0-2.633-1.178-2.633-2.631V66.597c-1.026-0.955-1.911-2.451-2.568-4.316-0.462 4.266-1.328 9.307-3.368 15.404-1.548 4.629-2.693 9.145-2.268 12.977 0.148 1.34-0.867 1.543-1.016 0.203-0.097-0.873-0.165-1.783-0.198-2.719-0.327 0.229-0.726 0.363-1.157 0.363H9.208c-1.117 0-2.021-0.904-2.021-2.021v-1.668c0-1.117 0.904-2.021 2.021-2.021h3.272c0.516 0 0.986 0.193 1.343 0.512 0.229-2.027 0.665-4.131 1.379-6.266 2.51-7.502 3.191-13.348 3.566-18.158 0.188-2.41 0.272-5.039 0.644-7.57 0.461-4.098 1.83-7.47 3.642-9.156V3.117c0-1.454 1.179-2.632 2.633-2.632h48.594c1.453 0 2.632 1.178 2.632 2.632v23.421h2.078c0.112-0.355 0.445-0.614 0.839-0.614h1.131c0.484 0 0.879 0.394 0.879 0.877v8.282c0 0.485-0.395 0.877-0.879 0.877h-1.131c-0.394 0-0.727-0.258-0.839-0.615h-2.078v1.618h2.779L83.297 38.223 83.297 38.223zM37.145 62.155c-1.61 2.42-2.548 5.326-2.548 8.451 0 8.439 6.841 15.281 15.28 15.281 8.438 0 15.279-6.842 15.279-15.281 0-3.1-0.924-5.982-2.511-8.393 0.424 0.189 0.864 0.352 1.318 0.477 1.318 2.34 2.07 5.041 2.07 7.916 0 8.926-7.233 16.158-16.157 16.158-8.924 0-16.159-7.232-16.159-16.158 0-2.887 0.758-5.6 2.086-7.945C36.267 62.526 36.715 62.358 37.145 62.155L37.145 62.155zM60.959 53.831c0-3.02 2.448-5.469 5.468-5.469 3.019 0 5.468 2.449 5.468 5.469s-2.449 5.467-5.468 5.467C63.407 59.298 60.959 56.851 60.959 53.831L60.959 53.831zM64.711 53.831c0 0.947 0.769 1.715 1.716 1.715s1.715-0.768 1.715-1.715-0.768-1.717-1.715-1.717S64.711 52.884 64.711 53.831L64.711 53.831zM27.772 53.831c0-3.02 2.447-5.469 5.467-5.469 3.02 0 5.468 2.449 5.468 5.469s-2.448 5.467-5.468 5.467C30.22 59.298 27.772 56.851 27.772 53.831L27.772 53.831zM31.523 53.831c0 0.947 0.769 1.715 1.716 1.715 0.948 0 1.716-0.768 1.716-1.715s-0.768-1.717-1.716-1.717C32.292 52.114 31.523 52.884 31.523 53.831L31.523 53.831zM37.119 70.606c0-7.045 5.712-12.758 12.758-12.758 7.045 0 12.757 5.713 12.757 12.758 0 7.047-5.712 12.758-12.757 12.758C42.831 83.364 37.119 77.653 37.119 70.606L37.119 70.606zM43.511 67.196c0 1.713 1.39 3.104 3.103 3.104s3.103-1.391 3.103-3.104-1.39-3.104-3.103-3.104S43.511 65.483 43.511 67.196L43.511 67.196zM37.119 37.475c0-7.048 5.712-12.759 12.758-12.759 7.045 0 12.757 5.711 12.757 12.759 0 7.046-5.712 12.757-12.757 12.757C42.831 50.231 37.119 44.521 37.119 37.475L37.119 37.475zM43.511 33.306c0 1.713 1.39 3.102 3.103 3.102s3.103-1.389 3.103-3.102c0-1.715-1.39-3.104-3.103-3.104S43.511 31.591 43.511 33.306L43.511 33.306zM67.556 62.954c1.017 2.346 1.579 4.934 1.579 7.652 0 10.639-8.622 19.26-19.258 19.26-10.637 0-19.26-8.621-19.26-19.26 0-2.715 0.562-5.299 1.576-7.641 0.307 0.035 0.619 0.053 0.934 0.057-1.048 2.312-1.632 4.881-1.632 7.584 0 10.152 8.229 18.381 18.382 18.381 10.152 0 18.381-8.229 18.381-18.381 0-2.705-0.584-5.271-1.634-7.586C66.938 63.015 67.249 62.993 67.556 62.954L67.556 62.954zM32.049 5.111h35.607c1.212 0 2.194 0.983 2.194 2.194v7.119c0 1.212-0.982 2.193-2.194 2.193H32.049c-1.211 0-2.194-0.981-2.194-2.193V7.306C29.855 6.095 30.837 5.111 32.049 5.111L32.049 5.111z" fill="#528265" data-fill-palette-color="accent"></path></g></svg></g></svg></g></svg></g></svg></g></svg></g></svg></g><defs></defs></svg><rect width="78.25851531828094" height="95.481" fill="none" stroke="none" visibility="hidden"></rect></g></svg></g></svg>