<svg width="30" height="30" viewBox="0 0 30 30" fill="none" xmlns="http://www.w3.org/2000/svg">
<path d="M7.14286 0C3.20619 0 0 3.20619 0 7.14286V22.8571C0 26.7938 3.20619 30 7.14286 30H22.8571C26.7938 30 30 26.7938 30 22.8571V7.14286C30 3.20619 26.7938 0 22.8571 0H7.14286ZM6.42857 8.57143H23.5714C23.7 8.57143 23.8213 8.58594 23.9355 8.62165L16.9141 15.6362C15.8569 16.6933 14.1361 16.6933 13.079 15.6362L6.06445 8.62165C6.17874 8.58594 6.3 8.57143 6.42857 8.57143ZM5.05022 9.63588L10.4213 15L5.05022 20.3641C5.01451 20.2498 5 20.1286 5 20V10C5 9.87143 5.01451 9.75017 5.05022 9.63588ZM24.9498 9.63588C24.9855 9.75017 25 9.87143 25 10V20C25 20.1286 24.9855 20.2498 24.9498 20.3641L19.5717 15L24.9498 9.63588ZM11.4286 16.0073L12.0647 16.6504C12.8719 17.4575 13.9359 17.8571 14.993 17.8571C16.0573 17.8571 17.1142 17.4575 17.9213 16.6504L18.5645 16.0073L23.9355 21.3783C23.8213 21.4141 23.7 21.4286 23.5714 21.4286H6.42857C6.3 21.4286 6.17874 21.4141 6.06445 21.3783L11.4286 16.0073Z" fill="white"/>
</svg>
