<svg width="30" height="30" viewBox="0 0 30 30" fill="none" xmlns="http://www.w3.org/2000/svg">
<path d="M24.375 0H5.625C2.51953 0 0 2.51953 0 5.625V24.375C0 27.4805 2.51953 30 5.625 30H24.375C27.4805 30 30 27.4805 30 24.375V5.625C30 2.51953 27.4805 0 24.375 0ZM23.6133 16.1584H20.8053V26.5475H16.1178V16.1584H14.2969V12.6562H16.1178V10.4252C16.1178 7.50451 17.3302 5.76923 20.7782 5.76923H24.2668V9.25781H22.2386C20.8999 9.25781 20.8098 9.75361 20.8098 10.6911L20.8053 12.6562H23.9964L23.6133 16.1584Z" fill="white"/>
</svg>
