<svg width="150" height="90" viewBox="0 0 150 90" fill="none" xmlns="http://www.w3.org/2000/svg">
<g clip-path="url(#clip0_11_28)">
<g clip-path="url(#clip1_11_28)">
<g clip-path="url(#clip2_11_28)">
<g clip-path="url(#clip3_11_28)">
<g clip-path="url(#clip4_11_28)">
<g clip-path="url(#clip5_11_28)">
<path d="M74.9093 71.3571C92.0619 71.3571 105.967 59.5566 105.967 45C105.967 30.4433 92.0619 18.6428 74.9093 18.6428C57.7567 18.6428 43.8518 30.4433 43.8518 45C43.8518 59.5566 57.7567 71.3571 74.9093 71.3571Z" fill="white"/>
<g clip-path="url(#clip6_11_28)">
<path d="M75.675 58.0766C80.0467 58.0766 83.5904 55.0686 83.5904 51.3585C83.5904 50.2069 83.2493 49.1226 82.6472 48.1759C83.5839 47.863 84.2471 47.0881 84.2471 46.1821C84.2471 45.2336 83.5166 44.4269 82.5098 44.1461C81.8553 43.9718 81.4164 43.1889 81.6302 42.0935C81.7047 41.7827 81.7353 41.4621 81.7353 41.135C81.7353 39.5381 80.9033 38.044 79.5511 37.1007L77.6061 35.6062H75.6747H73.7424L71.7982 37.1001C70.4463 38.0437 69.6144 39.5375 69.6144 41.1344C69.6144 41.4618 69.6446 41.7824 69.7195 42.0929C69.9336 43.1886 69.4948 43.9712 68.8399 44.1455C67.8327 44.4263 67.1022 45.2326 67.1022 46.1815C67.1022 47.0875 67.7658 47.8623 68.7028 48.1752C68.1011 49.122 67.7596 50.2063 67.7596 51.3579C67.7593 55.0686 71.3034 58.0766 75.675 58.0766ZM72.5724 35.9574L72.9727 35.6497L72.748 35.6689C70.3173 35.8843 68.281 36.3271 67.1666 36.7112C66.7455 36.8467 66.4459 37.1926 66.4459 37.5978L66.4448 57.66C66.4448 58.0639 66.7426 58.4086 67.1622 58.5453C68.6996 59.0758 72.0197 59.7213 75.6739 59.7213C79.3249 59.7213 82.6439 59.077 84.182 58.5466C84.6034 58.4111 84.9027 58.0655 84.9027 57.66L84.9041 37.5978C84.9041 37.1932 84.6063 36.8486 84.1867 36.7125C83.0406 36.3169 80.9044 35.8577 78.3766 35.6497L78.7773 35.9577C81.0877 36.178 83.0188 36.6017 84.0682 36.9643C84.3693 37.0612 84.5849 37.309 84.5849 37.5981L84.5838 57.6603C84.5838 57.9492 84.3682 58.1973 84.0667 58.2945C82.573 58.8098 79.2929 59.4504 75.6736 59.4504C72.0542 59.4504 68.7741 58.8098 67.2804 58.2945C66.979 58.1976 66.7637 57.9492 66.7637 57.6603L66.7648 37.5981C66.7648 37.309 66.9804 37.0615 67.2815 36.9643C68.3287 36.6023 70.2533 36.178 72.5724 35.9574ZM69.1926 30.877C68.5759 30.877 68.0756 31.3016 68.0756 31.8249V34.0217C68.0756 34.5447 68.5756 34.9693 69.1926 34.9693H82.1396C82.7563 34.9693 83.2566 34.5447 83.2566 34.0217V31.8252C83.2566 31.3019 82.7563 30.8773 82.1396 30.8773H69.1926V30.877ZM87.8268 41.3655C87.8581 41.0909 88.1308 40.8767 88.462 40.8767H89.0282C89.3805 40.8767 89.6663 41.119 89.6663 41.4183V48.8822C89.6663 49.1812 89.3805 49.4234 89.0282 49.4234H88.462C88.1308 49.4234 87.8581 49.209 87.8268 48.9347L86.5164 49.3228H85.5059V54.9575H86.2615C86.3022 54.8473 86.4233 54.7677 86.5665 54.7677H86.9778C87.1538 54.7677 87.2974 54.889 87.2974 55.0383V57.5937C87.2974 57.7436 87.1538 57.8649 86.9778 57.8649H86.5665C86.4233 57.8649 86.3022 57.7847 86.2615 57.6751H85.5059V59.4677C85.5059 59.916 85.0772 60.2795 84.5489 60.2795H66.8797C66.351 60.2795 65.9223 59.916 65.9223 59.4677V50.1211C65.5493 49.8264 65.2275 49.3648 64.9886 48.7893C64.8206 50.1057 64.5057 51.6613 63.7639 53.5427C63.2011 54.9711 62.7847 56.3646 62.9393 57.5471C62.9931 57.9606 62.624 58.0232 62.5699 57.6097C62.5346 57.3403 62.5099 57.0595 62.4979 56.7707C62.379 56.8414 62.2339 56.8827 62.0772 56.8827H60.8874C60.4813 56.8827 60.1526 56.6038 60.1526 56.2591V55.7444C60.1526 55.3997 60.4813 55.1207 60.8874 55.1207H62.0772C62.2648 55.1207 62.4357 55.1803 62.5655 55.2787C62.6488 54.6532 62.8073 54.004 63.0669 53.3452C63.9796 51.0302 64.2272 49.2263 64.3635 47.742C64.4319 46.9983 64.4624 46.1871 64.5977 45.4061C64.7653 44.1415 65.2631 43.101 65.922 42.5807V30.5326C65.922 30.0839 66.3507 29.7204 66.8793 29.7204H84.5485C85.0768 29.7204 85.5055 30.0839 85.5055 30.5326V37.7598H86.2611C86.3018 37.6503 86.4229 37.5703 86.5662 37.5703H86.9774C87.1534 37.5703 87.297 37.6919 87.297 37.841V40.3966C87.297 40.5463 87.1534 40.6672 86.9774 40.6672H86.5662C86.4229 40.6672 86.3018 40.5876 86.2611 40.4774H85.5055V40.9767H86.516L87.8268 41.3655ZM71.0456 48.7504C70.4602 49.4972 70.1191 50.3939 70.1191 51.3582C70.1191 53.9623 72.6065 56.0736 75.675 56.0736C78.7431 56.0736 81.2306 53.9623 81.2306 51.3582C81.2306 50.4016 80.8946 49.5123 80.3176 48.7683C80.4717 48.8267 80.6317 48.877 80.7968 48.9155C81.276 49.6376 81.5495 50.4711 81.5495 51.3582C81.5495 54.1126 78.9195 56.3442 75.6747 56.3442C72.4298 56.3442 69.7991 54.1126 69.7991 51.3582C69.7991 50.4674 70.0747 49.6302 70.5576 48.9066C70.7263 48.8649 70.8892 48.8131 71.0456 48.7504ZM79.7045 46.1818C79.7045 45.2499 80.5946 44.4942 81.6927 44.4942C82.7905 44.4942 83.6809 45.2499 83.6809 46.1818C83.6809 47.1137 82.7905 47.8688 81.6927 47.8688C80.5946 47.8688 79.7045 47.1137 79.7045 46.1818ZM81.0688 46.1818C81.0688 46.4741 81.3484 46.711 81.6927 46.711C82.0371 46.711 82.3163 46.4741 82.3163 46.1818C82.3163 45.8896 82.0371 45.652 81.6927 45.652C81.3484 45.652 81.0688 45.8896 81.0688 46.1818ZM67.6375 46.1818C67.6375 45.2499 68.5272 44.4942 69.6253 44.4942C70.7234 44.4942 71.6135 45.2499 71.6135 46.1818C71.6135 47.1137 70.7234 47.8688 69.6253 47.8688C68.5276 47.8688 67.6375 47.1137 67.6375 46.1818ZM69.0014 46.1818C69.0014 46.4741 69.281 46.711 69.6253 46.711C69.97 46.711 70.2493 46.4741 70.2493 46.1818C70.2493 45.8896 69.97 45.652 69.6253 45.652C69.281 45.652 69.0014 45.8896 69.0014 46.1818ZM71.0361 51.3582C71.0361 49.1843 73.113 47.4214 75.675 47.4214C78.2366 47.4214 80.3136 49.1843 80.3136 51.3582C80.3136 53.5328 78.2366 55.2951 75.675 55.2951C73.113 55.2951 71.0361 53.5328 71.0361 51.3582ZM73.3603 50.306C73.3603 50.8346 73.8657 51.2638 74.4886 51.2638C75.1114 51.2638 75.6168 50.8346 75.6168 50.306C75.6168 49.7774 75.1114 49.3482 74.4886 49.3482C73.8657 49.3482 73.3603 49.7774 73.3603 50.306ZM71.0361 41.1347C71.0361 38.9599 73.113 37.1976 75.675 37.1976C78.2366 37.1976 80.3136 38.9599 80.3136 41.1347C80.3136 43.309 78.2366 45.0713 75.675 45.0713C73.113 45.0709 71.0361 43.309 71.0361 41.1347ZM73.3603 39.8483C73.3603 40.3769 73.8657 40.8055 74.4886 40.8055C75.1114 40.8055 75.6168 40.3769 75.6168 39.8483C75.6168 39.319 75.1114 38.8904 74.4886 38.8904C73.8657 38.8904 73.3603 39.319 73.3603 39.8483ZM82.1033 48.997C82.473 49.7209 82.6774 50.5195 82.6774 51.3582C82.6774 54.6412 79.5424 57.3015 75.675 57.3015C71.8073 57.3015 68.6719 54.6412 68.6719 51.3582C68.6719 50.5204 68.8763 49.7231 69.245 49.0004C69.3566 49.0112 69.47 49.0167 69.5846 49.018C69.2035 49.7314 68.9912 50.5241 68.9912 51.3582C68.9912 54.4909 71.9833 57.0302 75.675 57.0302C79.3664 57.0302 82.3585 54.4909 82.3585 51.3582C82.3585 50.5235 82.1462 49.7317 81.7644 49.0174C81.8785 49.0158 81.9916 49.009 82.1033 48.997ZM69.1926 31.1479H82.1396C82.5803 31.1479 82.9374 31.4512 82.9374 31.8249V34.0217C82.9374 34.3957 82.5803 34.6984 82.1396 34.6984H69.1926C68.7523 34.6984 68.3949 34.3957 68.3949 34.0217V31.8252C68.3949 31.4515 68.7519 31.1479 69.1926 31.1479Z" fill="#528265"/>
</g>
</g>
<path d="M25.496 28.718C25.8323 27.9755 26.3368 27.3857 27.0087 26.9492C27.6795 26.5146 28.4541 26.2588 29.332 26.1819C30.2088 26.107 31.1106 26.2208 32.0374 26.5233C32.9873 26.8335 33.7577 27.359 34.3482 28.1002C34.9364 28.8408 35.3056 29.6424 35.456 30.5051C35.6064 31.3679 35.5352 32.1219 35.2431 32.767C35.0886 33.1074 34.9182 33.4301 34.7315 33.7349C34.4417 34.2736 34.2326 34.684 34.1046 34.9669L33.463 36.3825L33.0093 36.2343L32.537 34.9315L25.0517 32.4884L24.1155 33.4755L23.6621 33.0496L24.2454 31.7623C24.5469 31.0975 24.8165 30.437 25.0548 29.781C25.24 29.2882 25.3824 28.9327 25.4816 28.7135L25.496 28.718ZM34.3894 32.1457C34.614 31.6498 34.6599 31.148 34.5262 30.6405C34.3917 30.1349 34.0963 29.673 33.6395 29.2541C33.1797 28.8366 32.6002 28.5139 31.9011 28.2857C31.0564 28.0099 30.241 27.8694 29.4543 27.864C28.665 27.8579 27.9636 28.015 27.3496 28.3358C26.7334 28.6556 26.2728 29.1523 25.9676 29.8253C25.7782 30.2435 25.7486 30.6681 25.8793 31.0991L33.4172 33.5597C33.8149 33.1936 34.1436 32.7236 34.4035 32.1502L34.3894 32.1457ZM44.2294 19.4396L44.5309 19.9485L41.9444 22.8298L41.5603 22.5816L41.5989 21.2027L39.0996 20.6444L36.3987 23.6529L37.6713 25.5619L39.7416 24.4385L40.034 24.9576L37.5297 27.7473L37.1456 27.4991L37.1331 26.1032L32.5332 19.1462L32.9479 17.7287L42.7981 19.9462L44.2294 19.4396ZM38.3735 20.4766L33.5884 19.402L36.0313 23.0856L38.3735 20.4766ZM48.318 16.3285L48.5009 16.8763L45.3592 19.2616L45.0372 18.9562L45.3175 17.6143L39.9885 12.5582L38.6246 13.0741L38.45 12.5196L41.5921 10.1346L41.9137 10.4396L41.6327 11.7951L46.9545 16.8441L48.318 16.3285ZM54.6291 4.02329L53.9879 5.30643L54.9722 13.2386L53.9424 14.3993L45.9167 9.06136L44.3661 9.04626L44.3297 8.47604L48.0453 6.70015L48.282 7.05693L47.615 8.30118L54.1344 12.6475L53.2436 5.62561L50.8314 5.95572L50.7916 5.38743L54.3924 3.66618L54.6291 4.02329ZM69.3769 8.72097L69.2587 9.28186L65.153 10.2719L65.0212 9.87779L66.0261 8.79393L64.4198 7.07558L60.1331 8.10929L59.8028 10.2847L62.2533 10.439L62.1211 11.0031L58.1458 11.9616L58.014 11.5679L58.99 10.4441L60.2225 2.53572L61.5557 1.61226L67.8732 8.39826L69.3769 8.72097ZM63.9573 6.57158L60.8864 3.27726L60.2395 7.46836L63.9573 6.57158ZM79.8546 4.80533C80.4345 4.83297 80.9018 4.71404 81.2563 4.44886C81.6086 4.18561 81.801 3.80697 81.8336 3.31293C81.8779 2.63986 81.7161 2.07768 81.348 1.6264C80.9776 1.17511 80.4083 0.931148 79.6402 0.894827C79.0532 0.866862 78.518 0.982577 78.0351 1.24165L77.5832 8.09451L79.6789 8.67179L79.3403 9.17161L74.4347 8.93858L74.4619 8.52651L75.7785 7.74608L76.2266 0.950755L74.8327 0.496577L75.1713 -3.05176e-05L76.8617 0.0803266C77.7101 0.120505 78.546 0.136577 79.3698 0.128862C79.9966 0.128541 80.4534 0.135291 80.7394 0.149112C81.3817 0.179327 81.9442 0.320434 82.4259 0.572112C82.9054 0.821219 83.269 1.14843 83.5167 1.55311C83.7622 1.95586 83.869 2.40008 83.8368 2.88576C83.8019 3.41579 83.5368 3.90661 83.0414 4.35725C82.5456 4.80822 81.9317 5.14958 81.1988 5.38197C80.4685 5.61211 79.7607 5.69601 79.0751 5.63365L78.4816 5.24022L78.824 4.74361L79.8406 4.79183L79.8546 4.80533ZM95.8079 12.2679L95.339 12.6752L91.3379 11.5492L91.4898 11.1603L93.0006 10.699L94.082 7.93218L89.1931 6.55647L87.9848 9.64829L89.187 10.4046L88.7181 10.8119L84.717 9.6859L84.8689 9.29697L86.3797 8.83572L88.8957 2.39686L87.6902 1.64954L88.1701 1.24518L92.1712 2.37115L92.0193 2.76008L90.4941 3.22743L89.4044 6.01583L94.2933 7.39154L95.5167 4.26018L94.3111 3.51286L94.7944 3.10947L98.7921 4.23447L98.6402 4.6234L97.115 5.09076L94.6024 11.5206L95.8079 12.2679ZM107.608 8.64351C108.405 9.10508 108.981 9.67368 109.336 10.349C109.692 11.0224 109.811 11.7395 109.693 12.5C109.576 13.2586 109.231 13.995 108.657 14.7085C108.067 15.4436 107.267 15.9737 106.26 16.2996C105.251 16.6243 104.223 16.7483 103.177 16.6721C102.13 16.5928 101.263 16.3543 100.575 15.9563C99.784 15.4983 99.2095 14.9335 98.8519 14.2618C98.4929 13.5916 98.3717 12.8774 98.4887 12.1185C98.6069 11.358 98.9531 10.6209 99.5265 9.90736C100.116 9.17418 100.915 8.64286 101.926 8.31372C102.938 7.98554 103.966 7.8589 105.01 7.93411C106.055 8.00901 106.92 8.24558 107.608 8.64351ZM106.281 9.1189C105.81 8.84601 105.284 8.71615 104.704 8.729C104.125 8.74218 103.553 8.89293 102.99 9.18158C102.427 9.47279 101.937 9.87843 101.519 10.3982C101.03 11.0063 100.695 11.6257 100.514 12.2567C100.332 12.8844 100.349 13.482 100.565 14.049C100.782 14.616 101.226 15.0936 101.897 15.4819C102.37 15.7561 102.897 15.8866 103.476 15.8734C104.056 15.8602 104.627 15.7082 105.19 15.4166C105.753 15.1283 106.244 14.7243 106.662 14.2042C107.156 13.5893 107.494 12.9664 107.676 12.3354C107.856 11.7064 107.837 11.1105 107.62 10.5483C107.4 9.98483 106.954 9.50815 106.281 9.1189ZM120.919 19.8344L118.312 21.7134L117.887 21.4955L118.738 18.8665L117.73 17.8592L111.023 22.6938L111.595 23.8641L110.945 24.0052L108.218 21.2811L108.586 21.0159L110.157 21.2856L116.549 16.6786L115.567 15.6982L112.373 15.9859L112.188 15.5941L114.795 13.7153L115.116 14.3527L120.23 19.4621L120.919 19.8344ZM125.662 27.6168C126.072 28.3586 126.227 29.097 126.127 29.8314C126.03 30.5649 125.702 31.2335 125.144 31.8371C124.588 32.4395 123.849 32.9239 122.928 33.2903C121.978 33.6677 120.972 33.7789 119.91 33.6243C118.846 33.4674 117.887 33.1303 117.032 32.6124C116.179 32.092 115.576 31.5122 115.223 30.8725C114.816 30.1365 114.661 29.402 114.756 28.6695C114.849 27.9376 115.173 27.2703 115.729 26.6679C116.287 26.0643 117.027 25.5796 117.949 25.2131C118.896 24.8368 119.903 24.7249 120.97 24.8779C122.038 25.0328 122.999 25.3681 123.853 25.884C124.707 26.3999 125.31 26.9775 125.662 27.6168ZM124.235 27.4525C123.993 27.0141 123.619 26.6753 123.112 26.4362C122.606 26.197 122.023 26.08 121.366 26.0845C120.706 26.0923 120.041 26.2295 119.369 26.4966C118.584 26.8087 117.924 27.197 117.389 27.6615C116.856 28.1234 116.512 28.645 116.359 29.2268C116.205 29.8083 116.3 30.4113 116.645 31.0352C116.888 31.4755 117.263 31.8156 117.769 32.0544C118.276 32.2936 118.859 32.4093 119.518 32.4019C120.176 32.3971 120.841 32.2611 121.513 31.9943C122.307 31.6784 122.971 31.2881 123.506 30.8237C124.039 30.3599 124.38 29.8391 124.53 29.2612C124.679 28.6814 124.581 28.0787 124.235 27.4525ZM38.928 59.7883C39.2753 60.5481 39.3715 61.2896 39.2166 62.0132C39.0587 62.7358 38.678 63.3812 38.0754 63.9501C37.4702 64.52 36.693 64.961 35.7439 65.2734C34.7712 65.5933 33.7607 65.6444 32.712 65.4264C31.6659 65.2079 30.736 64.816 29.9225 64.2506C29.1089 63.6856 28.5514 63.0729 28.2499 62.4124C28.0908 62.0643 27.9579 61.7204 27.8511 61.3803C27.6352 60.8014 27.461 60.3668 27.3284 60.0766L26.6675 58.6295L27.1315 58.4768L28.5446 59.1891L36.2052 56.6688L36.115 55.3738L36.8044 55.4316L37.4054 56.7475C37.7171 57.4296 38.0478 58.0885 38.3974 58.724C38.658 59.2055 38.8394 59.5588 38.942 59.7838L38.928 59.7883ZM29.4013 62.3838C29.6331 62.891 30.005 63.2983 30.5175 63.6055C31.0322 63.9119 31.6325 64.0899 32.3181 64.1388C33.0036 64.1876 33.705 64.0944 34.422 63.8585C35.2848 63.5747 36.0173 63.2044 36.6199 62.7473C37.2206 62.2912 37.6247 61.7625 37.8327 61.1611C38.0379 60.5603 37.983 59.9149 37.6679 59.2248C37.4725 58.7973 37.1505 58.4582 36.7017 58.2075L28.9919 60.7442C28.9873 61.2536 29.1191 61.8017 29.3873 62.3883L29.4013 62.3838ZM39.6374 76.6218L38.9632 76.7381L36.3036 73.7955L36.6957 73.5403L38.2894 73.9424L39.6117 71.9929L36.8354 68.9207L34.2698 69.4732L35.0204 71.5133L34.3372 71.6194L31.7624 68.7706L32.1544 68.5154L33.7865 68.8805L43.1211 66.8899L44.6642 67.6195L39.431 75.2843L39.6374 76.6218ZM40.0029 71.432L42.5424 67.7063L37.5937 68.7658L40.0029 71.432ZM44.4214 80.3189L43.7847 80.54L40.5627 78.1013L40.8914 77.7883L42.5345 77.8744L47.9832 72.6901L47.2082 71.5718L47.8536 71.3568L51.0753 73.7958L50.7465 74.1085L49.0876 74.0234L43.6465 79.2006L44.4214 80.3189ZM61.2042 79.108L59.5396 79.3154L51.8778 84.2589L50.1307 84.1075L51.3783 75.3107L50.5693 74.1494L51.1389 73.8193L54.9438 75.6366L54.7014 76.0021L53.0626 76.1702L52.0418 83.32L58.8173 78.93L57.1936 77.3135L57.7598 76.9818L61.4466 78.7426L61.2042 79.108ZM67.8512 88.9958L67.3918 89.4304L63.1888 88.4153L63.3241 88.0123L64.886 87.5279L64.5766 85.2939L60.1884 84.2342L58.5181 85.9766L60.5546 87.2338L60.0808 87.6648L56.0119 86.6822L56.1471 86.2791L57.7136 85.7459L63.8051 79.4218L65.5564 79.226L66.7453 88.0267L67.8512 88.9958ZM64.4959 84.6456L63.9145 80.37L60.688 83.726L64.4959 84.6456ZM79.4811 85.2891C80.0762 85.2634 80.5371 85.0995 80.8636 84.797C81.1878 84.4945 81.3347 84.0908 81.3045 83.5859C81.2632 82.8958 81.0257 82.3378 80.5924 81.9122C80.1591 81.4866 79.5497 81.2909 78.7638 81.3246C78.1589 81.351 77.6279 81.5181 77.1708 81.826L77.5919 88.8505L79.8016 89.2453L79.5168 89.783L74.4934 90L74.468 89.5782L75.708 88.6625L75.2903 81.6991L73.8132 81.3658L74.0942 80.828L75.8262 80.7531C76.6951 80.7158 77.5484 80.6554 78.3866 80.5722C79.0247 80.5124 79.4906 80.4764 79.7845 80.4635C80.442 80.4352 81.0317 80.5271 81.5529 80.7396C82.0763 80.9498 82.4896 81.2491 82.7922 81.6377C83.0948 82.024 83.2611 82.4654 83.2906 82.962C83.3236 83.5071 83.1156 84.032 82.6679 84.5363C82.2225 85.0426 81.6415 85.4479 80.9249 85.7523C80.2106 86.0544 79.4997 86.2058 78.7926 86.2065L78.1411 85.8596L78.4225 85.3222L79.4656 85.2769L79.4811 85.2891ZM97.6168 85.3798L97.5218 85.958L93.4173 87.0939L93.2642 86.6954L94.1782 85.5337L93.0885 82.6984L88.0735 84.086L89.2915 87.2559L90.824 87.2595L90.7289 87.8377L86.624 88.9736L86.471 88.5751L87.3849 87.4134L84.8473 80.8087L83.3186 80.8145L83.4243 80.2334L87.5288 79.0974L87.6822 79.496L86.7607 80.6695L87.8599 83.5293L92.8749 82.1414L91.6405 78.929L90.1119 78.9345L90.2176 78.3533L94.3221 77.2174L94.4751 77.616L93.554 78.7898L96.0882 85.3852L97.6168 85.3798ZM99.2379 73.9375C100.059 73.4673 100.914 73.2163 101.805 73.1844C102.697 73.1497 103.545 73.3236 104.35 73.7068C105.157 74.0883 105.854 74.6469 106.439 75.3824C107.038 76.1351 107.33 76.9808 107.315 77.9188C107.298 78.8577 107.048 79.7345 106.565 80.5493C106.082 81.3674 105.487 81.9784 104.781 82.3834C103.968 82.8488 103.118 83.0995 102.23 83.1346C101.34 83.1712 100.492 82.998 99.6875 82.6151C98.88 82.2336 98.1838 81.675 97.5986 80.9395C96.9991 80.1864 96.7056 79.3391 96.7177 78.3977C96.7332 77.4569 96.9798 76.5794 97.4574 75.7652C97.938 74.9516 98.5315 74.3425 99.2379 73.9375ZM99.2708 75.1853C98.7834 75.4646 98.4376 75.8404 98.2338 76.3126C98.0316 76.7864 97.9865 77.3051 98.0986 77.8689C98.2107 78.4327 98.4792 78.9817 98.9038 79.5156C99.4019 80.1414 99.97 80.6474 100.608 81.0334C101.244 81.4178 101.921 81.6296 102.638 81.6692C103.355 81.7087 104.059 81.5303 104.751 81.134C105.236 80.8557 105.58 80.4796 105.782 80.0058C105.988 79.5326 106.035 79.0142 105.923 78.4504C105.811 77.8863 105.542 77.3366 105.115 76.8008C104.613 76.1699 104.043 75.6614 103.405 75.2753C102.767 74.8922 102.09 74.6826 101.376 74.6466C100.662 74.6106 99.9602 74.7903 99.2708 75.1853ZM109.798 64.9668L112.458 66.9011L112.272 67.3013L108.998 66.9931L107.96 68.021L114.805 72.9999L116.107 72.3204L116.38 72.8563L113.573 75.6357L113.198 75.3631L113.264 73.9697L106.743 69.226L105.732 70.227L106.591 72.9257L106.154 73.1426L103.494 71.208L104.201 70.8329L109.469 65.6167L109.798 64.9668ZM112.351 59.9933C112.775 59.2338 113.361 58.6478 114.108 58.2354C114.854 57.8201 115.689 57.6035 116.612 57.5849C117.536 57.5643 118.47 57.744 119.415 58.1242C120.383 58.5131 121.141 59.1145 121.691 59.9281C122.24 60.7435 122.551 61.6063 122.625 62.5162C122.699 63.4291 122.554 64.2124 122.189 64.8659C121.77 65.6177 121.188 66.2008 120.445 66.6148C119.701 67.031 118.868 67.2483 117.945 67.2669C117.021 67.2872 116.087 67.1075 115.142 66.7276C114.174 66.3386 113.413 65.7363 112.858 64.9208C112.307 64.1044 111.993 63.2426 111.915 62.3356C111.841 61.4275 111.986 60.6468 112.351 59.9933ZM113.128 61.0528C112.876 61.5037 112.804 61.9765 112.912 62.4709C113.022 62.9659 113.295 63.432 113.73 63.8688C114.164 64.3056 114.725 64.6621 115.411 64.9379C116.215 65.2612 117.007 65.4512 117.788 65.5078C118.567 65.5634 119.276 65.4531 119.917 65.1773C120.558 64.9015 121.057 64.4435 121.414 63.8035C121.665 63.3542 121.735 62.882 121.625 62.387C121.518 61.8907 121.247 61.4243 120.812 60.9875C120.377 60.5507 119.816 60.1939 119.128 59.9171C118.317 59.5909 117.521 59.3996 116.74 59.3431C115.961 59.2894 115.253 59.4013 114.617 59.679C113.98 59.9567 113.484 60.4147 113.128 61.0528ZM27.0273 46.3837C27.0273 45.8029 27.5822 45.332 28.2666 45.332C28.951 45.332 29.5058 45.8029 29.5058 46.3837C29.5058 46.9645 28.951 47.4354 28.2666 47.4354C27.5822 47.4354 27.0273 46.9645 27.0273 46.3837ZM122.047 46.3837C122.047 45.8029 122.601 45.332 123.286 45.332C123.97 45.332 124.525 45.8029 124.525 46.3837C124.525 46.9645 123.97 47.4354 123.286 47.4354C122.601 47.4354 122.047 46.9645 122.047 46.3837Z" fill="white"/>
</g>
</g>
</g>
</g>
</g>
<defs>
<clipPath id="clip0_11_28">
<rect width="149.803" height="90" fill="white" transform="translate(0.00756836 -3.05176e-05)"/>
</clipPath>
<clipPath id="clip1_11_28">
<rect width="149.803" height="90" fill="white" transform="translate(0.00756836 -3.05176e-05)"/>
</clipPath>
<clipPath id="clip2_11_28">
<rect width="149.803" height="90" fill="white" transform="translate(0.00756836 -3.05176e-05)"/>
</clipPath>
<clipPath id="clip3_11_28">
<rect width="149.803" height="90" fill="white" transform="translate(0.00756836 -3.05176e-05)"/>
</clipPath>
<clipPath id="clip4_11_28">
<rect width="149.803" height="90" fill="white" transform="translate(0.00756836 -3.05176e-05)"/>
</clipPath>
<clipPath id="clip5_11_28">
<rect width="77.3468" height="53.033" fill="white" transform="translate(36.2358 18.4835)"/>
</clipPath>
<clipPath id="clip6_11_28">
<rect width="50.8651" height="30.5591" fill="white" transform="translate(49.4768 29.7204)"/>
</clipPath>
</defs>
</svg>
